<?xml version="1.0" standalone="no"?>
<!DOCTYPE svg PUBLIC "-//W3C//DTD SVG 20010904//EN"
 "http://www.w3.org/TR/2001/REC-SVG-20010904/DTD/svg10.dtd">
<svg version="1.0" xmlns="http://www.w3.org/2000/svg"
 width="512.000000pt" height="512.000000pt" viewBox="0 0 512.000000 512.000000"
 preserveAspectRatio="xMidYMid meet">
<metadata>
Created by potrace 1.14, written by Peter Selinger 2001-2017
</metadata>
<g transform="translate(0.000000,512.000000) scale(0.100000,-0.100000)"
fill="#000000" stroke="none">
<path d="M430 5113 c-180 -30 -335 -161 -402 -339 l-23 -59 -3 -2129 c-2
-1890 -1 -2136 13 -2190 25 -100 63 -166 139 -242 80 -79 163 -125 260 -143
84 -15 4208 -15 4292 0 168 31 321 163 386 335 l23 59 0 2150 c0 2071 -1 2152
-19 2205 -52 154 -168 274 -322 332 l-59 23 -2130 1 c-1172 1 -2141 -1 -2155
-3z m2995 -757 c144 -37 217 -76 301 -160 75 -76 106 -130 129 -229 19 -81 19
-227 0 -302 -55 -210 -268 -384 -538 -439 -243 -50 -588 -18 -898 84 -67 22
-125 40 -128 40 -11 0 -116 -206 -160 -313 -113 -273 -167 -520 -178 -812 -10
-269 21 -459 100 -625 31 -67 56 -101 116 -161 103 -103 200 -147 367 -170
218 -29 494 27 719 145 183 97 283 177 423 339 94 110 132 139 177 135 24 -2
34 -11 49 -43 26 -53 27 -230 3 -325 -133 -505 -767 -841 -1488 -791 -382 27
-665 136 -880 338 -157 148 -255 327 -311 563 -26 111 -36 436 -18 607 54 536
252 1031 581 1458 4 6 -15 39 -42 75 -63 82 -164 285 -180 358 -29 140 31 221
134 179 19 -9 100 -76 179 -150 205 -191 179 -181 280 -104 205 159 434 266
663 311 121 23 137 24 325 21 149 -3 190 -7 275 -29z"/>
<path d="M3020 3910 c-165 -20 -311 -90 -464 -224 l-39 -34 59 -17 c132 -39
266 -57 434 -58 135 -2 174 1 216 16 73 25 106 64 111 129 11 143 -107 213
-317 188z"/>
</g>
</svg>
